<?xml version="1.0" encoding="UTF-8" standalone="no"?><!DOCTYPE svg PUBLIC "-//W3C//DTD SVG 1.1//EN" "http://www.w3.org/Graphics/SVG/1.1/DTD/svg11.dtd"><svg width="100%" height="100%" viewBox="0 0 123 123" version="1.1" xmlns="http://www.w3.org/2000/svg" xmlns:xlink="http://www.w3.org/1999/xlink" xml:space="preserve" xmlns:serif="http://www.serif.com/" style="fill-rule:evenodd;clip-rule:evenodd;stroke-linecap:round;stroke-linejoin:round;stroke-miterlimit:1.5;"><path d="M23.38,38.88c0,-5.293 2.962,-10.22 8.07,-14.189c7.363,-5.721 19.236,-9.471 32.63,-9.471c13.394,0 25.267,3.751 32.63,9.471c5.108,3.968 8.07,8.895 8.07,14.189l0,10.56l-0.097,0.211c-0.548,4.664 -3.401,8.985 -7.973,12.538c-7.363,5.721 -19.236,9.471 -32.63,9.471c-13.394,0 -25.267,-3.751 -32.63,-9.471c-4.674,-3.632 -7.552,-8.066 -8.006,-12.849l-0.063,-0.139l0,-10.32Zm-9,15.6c0,-4.079 1.759,-7.941 4.904,-11.314c0.255,-0.274 0.52,-0.545 0.793,-0.812l0,5.242c-0.002,0.931 0.076,1.861 0.232,2.787c0.037,0.475 0.098,0.947 0.183,1.414c0.15,0.823 0.373,1.632 0.665,2.428c1.263,3.434 3.819,6.596 7.334,9.335c3.001,2.338 6.693,4.364 10.905,5.983c6.158,2.448 11.59,3.244 12.761,3.433c9.511,1.531 18.046,0.722 19.921,0.538c0.382,-0.038 0.762,-0.078 1.14,-0.121c3.687,-0.422 7.194,-1.115 10.463,-2.045c3.419,-0.972 6.58,-2.203 9.417,-3.653c0.88,-0.45 1.728,-0.92 2.544,-1.411c-0.13,0.926 -0.35,1.838 -0.657,2.732c-1.199,3.496 -3.717,6.727 -7.276,9.493c-7.363,5.721 -19.236,9.471 -32.63,9.471c-13.394,0 -25.267,-3.751 -32.63,-9.471c-5.108,-3.968 -8.07,-8.895 -8.07,-14.189l0,-9.84Zm9.069,30.109c-0.046,-0.463 -0.069,-0.93 -0.069,-1.399c0,-0.382 0.015,-0.762 0.046,-1.14c0.693,0.408 1.412,0.803 2.154,1.183c0.581,0.298 1.178,0.587 1.788,0.867c1.67,0.767 3.445,1.465 5.312,2.088c6.575,2.194 14.283,3.452 22.52,3.452c14.427,0 27.235,-3.859 35.166,-9.849c3.007,-2.271 5.306,-4.844 6.681,-7.628c0.351,-0.711 0.642,-1.436 0.869,-2.173c0.384,-1.247 0.585,-2.53 0.585,-3.84c0,-0.512 -0.031,-1.02 -0.091,-1.523c0.085,-0.06 0.169,-0.12 0.253,-0.18c0.604,-0.435 1.18,-0.881 1.726,-1.338l0.013,-0.011c2.815,3.232 4.379,6.885 4.379,10.732l0,9.36c0,5.293 -2.962,10.22 -8.07,14.189c-7.363,5.721 -19.236,9.471 -32.63,9.471c-13.394,0 -25.267,-3.751 -32.63,-9.471c-4.655,-3.617 -7.528,-8.029 -8.001,-12.79Z" style="fill:#fff;stroke:#fff;stroke-width:6px;"/><g><rect x="25.194" y="84.84" width="1.84" height="4.169" style="fill:#bababa;"/><path d="M35.52,23.606c0.215,0.217 8.16,4.234 8.16,4.234l14.564,-3.36l-3.764,-7.44c-0.698,-1.197 -19.8,5.719 -18.96,6.566Z" style="fill:#8d1b1b;"/><path d="M70.32,23.52l2.88,-6.72l13.2,3.6l6.72,3.12l-8.4,4.56l-7.2,-2.4l-7.2,-2.16Z"/><path d="M91.44,35.76l10.56,-3.12l2.78,6.24l0,10.56l-3.74,8.16l0,-10.32l-9.36,-2.4l0,-5.52l-0.24,-3.6Z"/><path d="M70.32,56.4l2.16,5.76l0,8.64l11.76,-2.88l8.16,-3.6l0,-9.12l-7.68,-3.84l-7.68,2.16l-6.72,2.88Z"/><path d="M43.364,52.655c-1.145,-0.644 -2.2,-1.339 -3.152,-2.079c-3.899,-3.03 -6.117,-6.815 -6.117,-10.857c0,-4.041 2.218,-7.827 6.117,-10.857c5.388,-4.186 14.067,-6.958 23.868,-6.958c9.801,0 18.481,2.772 23.868,6.958c3.899,3.03 6.117,6.815 6.117,10.857c0,4.041 -2.218,7.827 -6.117,10.857c-5.388,4.186 -14.067,6.958 -23.868,6.958c-3.861,0 -7.548,-0.43 -10.928,-1.207c-2.303,-0.53 -0.702,-3.631 0.948,-3.261c3.089,0.691 6.458,1.069 9.98,1.069c8.933,0 16.872,-2.427 21.782,-6.242c2.966,-2.305 4.804,-5.098 4.804,-8.172c0,-3.074 -1.837,-5.867 -4.804,-8.172c-4.91,-3.815 -12.849,-6.242 -21.782,-6.242c-8.933,0 -16.872,2.427 -21.782,6.242c-2.966,2.305 -4.804,5.098 -4.804,8.172c0,3.074 1.837,5.867 4.804,8.172c1.076,0.836 2.297,1.605 3.643,2.297l-2.577,2.467Z" style="fill:#8d1b1b;"/><clipPath id="_clip1"><path d="M43.364,52.655c-1.145,-0.644 -2.2,-1.339 -3.152,-2.079c-3.899,-3.03 -6.117,-6.815 -6.117,-10.857c0,-4.041 2.218,-7.827 6.117,-10.857c5.388,-4.186 14.067,-6.958 23.868,-6.958c9.801,0 18.481,2.772 23.868,6.958c3.899,3.03 6.117,6.815 6.117,10.857c0,4.041 -2.218,7.827 -6.117,10.857c-5.388,4.186 -14.067,6.958 -23.868,6.958c-3.861,0 -7.548,-0.43 -10.928,-1.207c-2.303,-0.53 -0.702,-3.631 0.948,-3.261c3.089,0.691 6.458,1.069 9.98,1.069c8.933,0 16.872,-2.427 21.782,-6.242c2.966,-2.305 4.804,-5.098 4.804,-8.172c0,-3.074 -1.837,-5.867 -4.804,-8.172c-4.91,-3.815 -12.849,-6.242 -21.782,-6.242c-8.933,0 -16.872,2.427 -21.782,6.242c-2.966,2.305 -4.804,5.098 -4.804,8.172c0,3.074 1.837,5.867 4.804,8.172c1.076,0.836 2.297,1.605 3.643,2.297l-2.577,2.467Z"/></clipPath><g clip-path="url(#_clip1)"><rect x="64.08" y="12" width="46.56" height="63.12"/></g><path d="M26.937,46.702l10.378,-1.77c-1.453,-3.066 -1.86,-6.132 -0.642,-9.198l-10.761,-3.309c-1.25,3.532 -1.831,4.844 -2.532,6.455l0,10.32l3.5,7.68l0.057,-10.178Z" style="fill:#8d1b1b;"/><path d="M48.566,63.256l-5.331,-5.252l19.517,-19.812l-5.331,-5.252l18.41,-2.692l-2.416,18.448l-5.331,-5.252l-19.517,19.812Z" style="fill:#8d1b1b;"/><clipPath id="_clip2"><path d="M48.566,63.256l-5.331,-5.252l19.517,-19.812l-5.331,-5.252l18.41,-2.692l-2.416,18.448l-5.331,-5.252l-19.517,19.812Z"/></clipPath><g clip-path="url(#_clip2)"><path d="M67.259,21.826l8.57,8.422l-30.652,31.192l-8.57,-8.422l30.652,-31.192Z" style="fill:#c52626;"/></g><path d="M48.887,58.59l4.873,-3.39l4.08,1.042l-2.4,5.589l0,8.729l-11.522,-2.64l-8.123,-3.36l0,-9.12l6.206,-3.6l1.918,-0.818l-0.204,1.298l-3.365,3.422c2.603,1.146 5.469,2.106 8.538,2.848Zm51.781,-13.062c1.236,-2.087 1.911,-4.32 1.911,-6.648c0,-4.668 -2.716,-8.952 -7.22,-12.451c-7.054,-5.481 -18.448,-9.009 -31.28,-9.009c-12.833,0 -24.226,3.528 -31.28,9.009c-2.464,1.914 -4.393,4.064 -5.634,6.382l-1.253,-0.385c-1.25,3.532 -1.831,4.844 -2.532,6.455c0,-5.293 2.962,-10.22 8.07,-14.189c7.363,-5.721 19.236,-9.471 32.63,-9.471c13.394,0 25.267,3.751 32.63,9.471c5.108,3.968 8.07,8.895 8.07,14.189c0,2.711 -0.777,5.326 -2.221,7.765c-0.917,-0.264 -1.922,-0.146 -1.89,-1.117Z" style="fill:#8d1b1b;"/><clipPath id="_clip3"><path d="M48.887,58.59l4.873,-3.39l4.08,1.042l-2.4,5.589l0,8.729l-11.522,-2.64l-8.123,-3.36l0,-9.12l6.206,-3.6l1.918,-0.818l-0.204,1.298l-3.365,3.422c2.603,1.146 5.469,2.106 8.538,2.848Zm51.781,-13.062c1.236,-2.087 1.911,-4.32 1.911,-6.648c0,-4.668 -2.716,-8.952 -7.22,-12.451c-7.054,-5.481 -18.448,-9.009 -31.28,-9.009c-12.833,0 -24.226,3.528 -31.28,9.009c-2.464,1.914 -4.393,4.064 -5.634,6.382l-1.253,-0.385c-1.25,3.532 -1.831,4.844 -2.532,6.455c0,-5.293 2.962,-10.22 8.07,-14.189c7.363,-5.721 19.236,-9.471 32.63,-9.471c13.394,0 25.267,3.751 32.63,9.471c5.108,3.968 8.07,8.895 8.07,14.189c0,2.711 -0.777,5.326 -2.221,7.765c-0.917,-0.264 -1.922,-0.146 -1.89,-1.117Z"/></clipPath><g clip-path="url(#_clip3)"><rect x="64.08" y="12" width="46.56" height="63.12"/></g><path d="M104.78,48c0,5.293 -2.962,10.22 -8.07,14.189c-7.363,5.721 -19.236,9.471 -32.63,9.471c-13.394,0 -25.267,-3.751 -32.63,-9.471c-5.108,-3.968 -8.07,-8.895 -8.07,-14.189l2.2,0c0,4.668 2.716,8.952 7.22,12.451c7.054,5.481 18.448,9.009 31.28,9.009c12.833,0 24.226,-3.528 31.28,-9.009c4.504,-3.499 7.22,-7.784 7.22,-12.451l2.2,0Z" style="fill:#8d1b1b;"/><clipPath id="_clip4"><path d="M104.78,48c0,5.293 -2.962,10.22 -8.07,14.189c-7.363,5.721 -19.236,9.471 -32.63,9.471c-13.394,0 -25.267,-3.751 -32.63,-9.471c-5.108,-3.968 -8.07,-8.895 -8.07,-14.189l2.2,0c0,4.668 2.716,8.952 7.22,12.451c7.054,5.481 18.448,9.009 31.28,9.009c12.833,0 24.226,-3.528 31.28,-9.009c4.504,-3.499 7.22,-7.784 7.22,-12.451l2.2,0Z"/></clipPath><g clip-path="url(#_clip4)"><rect x="26.88" y="51.12" width="8.914" height="15.84" style="fill:#bababa;"/><rect x="72.48" y="47.322" width="33.5" height="26.598"/><rect x="55.44" y="66.96" width="17.04" height="5.76" style="fill:#bababa;"/><rect x="92.4" y="52.8" width="8.64" height="12.96" style="fill:#bababa;"/></g><path d="M26.937,46.702c2.165,3.569 5.09,6.504 8.858,8.738l0,9.12l-3.394,-2.88l-5.52,-4.8l0.057,-10.178Z" style="fill:#bababa;"/><path d="M55.44,61.831c5.547,0.865 11.226,0.978 17.04,0.329l0,8.64l-8.4,0l-8.64,-0.24l0,-8.729Z" style="fill:#bababa;"/><path d="M92.4,55.2c3.169,-1.711 6.005,-4.474 8.64,-7.878l0,9.776l-6.96,5.782l-1.68,1.44l0,-9.12Z" style="fill:#bababa;"/><path d="M14.38,54.48c0,-4.079 1.759,-7.941 4.904,-11.314c0.255,-0.274 0.52,-0.545 0.793,-0.812l0,5.242c-0.002,0.931 0.076,1.861 0.232,2.787c0.037,0.475 0.098,0.947 0.183,1.414c0.15,0.823 0.373,1.632 0.665,2.428c1.263,3.434 3.819,6.596 7.334,9.335c3.001,2.338 6.693,4.364 10.905,5.983c6.158,2.448 11.59,3.244 12.761,3.433c9.511,1.531 18.046,0.722 19.921,0.538c0.382,-0.038 0.762,-0.078 1.14,-0.121c3.687,-0.422 7.194,-1.115 10.463,-2.045c3.419,-0.972 6.58,-2.203 9.417,-3.653c0.88,-0.45 1.728,-0.92 2.544,-1.411c-0.13,0.926 -0.35,1.838 -0.657,2.732c-1.199,3.496 -3.717,6.727 -7.276,9.493c-7.363,5.721 -19.236,9.471 -32.63,9.471c-13.394,0 -25.267,-3.751 -32.63,-9.471c-5.108,-3.968 -8.07,-8.895 -8.07,-14.189l0,-9.84Zm2.826,8.719c-0.167,-0.247 -0.327,-0.495 -0.48,-0.746c-0.097,0.615 -0.146,1.238 -0.146,1.867c0,4.668 2.716,8.952 7.22,12.451c7.054,5.481 18.448,9.009 31.28,9.009c12.833,0 24.226,-3.528 31.28,-9.009c2.424,-1.883 4.33,-3.994 5.573,-6.269c-5.084,2.265 -11.024,3.933 -17.494,4.808c-3.124,0.978 -6.498,1.729 -10.053,2.21l-0.786,-1.441l-4.808,-0.239c-12.976,-0.843 -24.305,-4.821 -31.653,-10.545c-3.488,-2.718 -6.088,-5.832 -7.59,-9.197c-0.798,1.059 -1.45,2.162 -1.936,3.302c0.25,0.584 0.542,1.159 0.876,1.723l-0.862,-0.163l-0.421,2.239Zm0.88,-14.638c-0.978,1.876 -1.506,3.86 -1.506,5.92c0,0.63 0.049,1.252 0.146,1.867c0.557,-0.914 1.209,-1.802 1.948,-2.661c-0.399,-1.423 -0.606,-2.882 -0.606,-4.366c0,-0.254 0.006,-0.507 0.018,-0.76Z"/><clipPath id="_clip5"><path d="M14.38,54.48c0,-4.079 1.759,-7.941 4.904,-11.314c0.255,-0.274 0.52,-0.545 0.793,-0.812l0,5.242c-0.002,0.931 0.076,1.861 0.232,2.787c0.037,0.475 0.098,0.947 0.183,1.414c0.15,0.823 0.373,1.632 0.665,2.428c1.263,3.434 3.819,6.596 7.334,9.335c3.001,2.338 6.693,4.364 10.905,5.983c6.158,2.448 11.59,3.244 12.761,3.433c9.511,1.531 18.046,0.722 19.921,0.538c0.382,-0.038 0.762,-0.078 1.14,-0.121c3.687,-0.422 7.194,-1.115 10.463,-2.045c3.419,-0.972 6.58,-2.203 9.417,-3.653c0.88,-0.45 1.728,-0.92 2.544,-1.411c-0.13,0.926 -0.35,1.838 -0.657,2.732c-1.199,3.496 -3.717,6.727 -7.276,9.493c-7.363,5.721 -19.236,9.471 -32.63,9.471c-13.394,0 -25.267,-3.751 -32.63,-9.471c-5.108,-3.968 -8.07,-8.895 -8.07,-14.189l0,-9.84Zm2.826,8.719c-0.167,-0.247 -0.327,-0.495 -0.48,-0.746c-0.097,0.615 -0.146,1.238 -0.146,1.867c0,4.668 2.716,8.952 7.22,12.451c7.054,5.481 18.448,9.009 31.28,9.009c12.833,0 24.226,-3.528 31.28,-9.009c2.424,-1.883 4.33,-3.994 5.573,-6.269c-5.084,2.265 -11.024,3.933 -17.494,4.808c-3.124,0.978 -6.498,1.729 -10.053,2.21l-0.786,-1.441l-4.808,-0.239c-12.976,-0.843 -24.305,-4.821 -31.653,-10.545c-3.488,-2.718 -6.088,-5.832 -7.59,-9.197c-0.798,1.059 -1.45,2.162 -1.936,3.302c0.25,0.584 0.542,1.159 0.876,1.723l-0.862,-0.163l-0.421,2.239Zm0.88,-14.638c-0.978,1.876 -1.506,3.86 -1.506,5.92c0,0.63 0.049,1.252 0.146,1.867c0.557,-0.914 1.209,-1.802 1.948,-2.661c-0.399,-1.423 -0.606,-2.882 -0.606,-4.366c0,-0.254 0.006,-0.507 0.018,-0.76Z"/></clipPath><g clip-path="url(#_clip5)"><rect x="83.52" y="63.714" width="15.6" height="27.486" style="fill:#bababa;"/><path d="M17.76,62.64c2.561,3.529 5.54,6.043 8.88,7.68l0,11.52l-8.88,-6.96l0,-12.24Z" style="fill:#bababa;"/><path d="M46.8,76.56c5.443,0.855 11.024,1.063 16.8,0.36l0,13.08l-16.8,-0.24l0,-13.2Z" style="fill:#bababa;"/></g><path d="M17.76,62.64c2.561,3.529 5.54,6.043 8.88,7.68l0,9.84l-8.88,-6.72l0,-10.8Z" style="fill:#bababa;"/><path d="M83.52,72.313l0,7.5l7.68,-6.133l1.92,-4.32l-4.8,1.2l-4.8,1.753Z" style="fill:#bababa;"/><path d="M46.8,76.56c5.443,0.855 11.024,1.063 16.8,0.36l0,9.96l-16.8,-0.24l0,-10.08Z" style="fill:#bababa;"/><path d="M23.9,62.394l-6.14,0.246l0,8.16l-2.64,-5.633l0.48,-13.327l3.074,-6l1.246,8.4l3.84,6.391l0.197,1.822"/><path d="M26.64,70.32l0,9.36l11.04,5.04l9.12,1.68l0,-9.84l2.4,-2.88l-8.88,-2.64l-8.16,-3.6l-5.52,2.88Z"/><path d="M63.6,86.4l0,-10.46l12.96,-1.824l6.96,-1.396l0,7.2l-10.08,4.56l-9.84,1.92Z"/><path d="M23.449,84.589c-0.046,-0.463 -0.069,-0.93 -0.069,-1.399c0,-0.382 0.015,-0.762 0.046,-1.14c0.693,0.408 1.412,0.803 2.154,1.183c0.581,0.298 1.178,0.587 1.788,0.867c1.67,0.767 3.445,1.465 5.312,2.088c6.575,2.194 14.283,3.452 22.52,3.452c14.427,0 27.235,-3.859 35.166,-9.849c3.007,-2.271 5.306,-4.844 6.681,-7.628c0.351,-0.711 0.642,-1.436 0.869,-2.173c0.384,-1.247 0.585,-2.53 0.585,-3.84c0,-0.512 -0.031,-1.02 -0.091,-1.523c0.085,-0.06 0.169,-0.12 0.253,-0.18c0.604,-0.435 1.18,-0.881 1.726,-1.338l0.013,-0.011c2.815,3.232 4.379,6.885 4.379,10.732l0,9.36c0,5.293 -2.962,10.22 -8.07,14.189c-7.363,5.721 -19.236,9.471 -32.63,9.471c-13.394,0 -25.267,-3.751 -32.63,-9.471c-4.655,-3.617 -7.528,-8.029 -8.001,-12.79Z" style="fill:#fff;"/><clipPath id="_clip6"><path d="M23.449,84.589c-0.046,-0.463 -0.069,-0.93 -0.069,-1.399c0,-0.382 0.015,-0.762 0.046,-1.14c0.693,0.408 1.412,0.803 2.154,1.183c0.581,0.298 1.178,0.587 1.788,0.867c1.67,0.767 3.445,1.465 5.312,2.088c6.575,2.194 14.283,3.452 22.52,3.452c14.427,0 27.235,-3.859 35.166,-9.849c3.007,-2.271 5.306,-4.844 6.681,-7.628c0.351,-0.711 0.642,-1.436 0.869,-2.173c0.384,-1.247 0.585,-2.53 0.585,-3.84c0,-0.512 -0.031,-1.02 -0.091,-1.523c0.085,-0.06 0.169,-0.12 0.253,-0.18c0.604,-0.435 1.18,-0.881 1.726,-1.338l0.013,-0.011c2.815,3.232 4.379,6.885 4.379,10.732l0,9.36c0,5.293 -2.962,10.22 -8.07,14.189c-7.363,5.721 -19.236,9.471 -32.63,9.471c-13.394,0 -25.267,-3.751 -32.63,-9.471c-4.655,-3.617 -7.528,-8.029 -8.001,-12.79Z"/></clipPath><g clip-path="url(#_clip6)"><path d="M100.388,63.11l0.013,-0.011c2.815,3.232 4.379,6.885 4.379,10.732l0,9.36c0,5.293 -2.962,10.22 -8.07,14.189c-7.363,5.721 -19.236,9.471 -32.63,9.471c-13.394,0 -25.267,-3.751 -32.63,-9.471c-4.655,-3.617 -7.528,-8.029 -8.001,-12.79c-0.046,-0.463 -0.069,-0.93 -0.069,-1.399c0,-0.382 0.015,-0.762 0.046,-1.14c0.693,0.408 1.412,0.803 2.154,1.183c0.581,0.298 1.178,0.587 1.788,0.867c1.67,0.767 3.445,1.465 5.312,2.088c6.575,2.194 14.283,3.452 22.52,3.452c14.427,0 27.235,-3.859 35.166,-9.849c3.007,-2.271 5.306,-4.844 6.681,-7.628c0.351,-0.711 0.642,-1.436 0.869,-2.173c0.384,-1.247 0.585,-2.53 0.585,-3.84c0,-0.512 -0.031,-1.02 -0.091,-1.523c0.085,-0.06 0.169,-0.12 0.253,-0.18c0.604,-0.435 1.18,-0.881 1.726,-1.338Zm0.277,4.066c-0.105,1.528 -0.445,3.024 -1,4.476c-0.28,0.731 -0.614,1.45 -1.001,2.157c-1.293,2.362 -3.173,4.583 -5.555,6.604c-2.154,3.416 -5.341,6.703 -14.42,9.262c-7.431,3.286 -16.011,2.243 -22.89,2.162c-0.199,0.001 -0.399,0.002 -0.599,0.002c-5.564,0 -10.894,-0.562 -15.818,-1.588c-2.727,-0.568 -5.329,-1.278 -7.777,-2.113c-2.021,-0.69 -3.938,-1.465 -5.734,-2.316c0.813,3.645 3.286,6.988 6.928,9.818c7.054,5.481 18.448,9.009 31.28,9.009c12.833,0 24.226,-3.528 31.28,-9.009c4.504,-3.499 7.22,-7.784 7.22,-12.451c0,-0.497 -0.031,-0.99 -0.091,-1.478c0.357,-0.593 0.675,-1.196 0.951,-1.809l0,-2.786c-0.277,-0.613 -0.594,-1.216 -0.951,-1.809c0.06,-0.488 0.091,-0.981 0.091,-1.478c0,-2.33 -0.677,-4.565 -1.915,-6.654Z" style="fill:#8d1b1b;"/><path d="M101.647,78.511c0.421,-1.04 0.706,-2.109 0.841,-3.202c-0.765,-1.271 -1.712,-2.493 -2.824,-3.656c-0.28,0.731 -0.614,1.45 -1.001,2.157c1.305,1.478 2.316,3.052 2.984,4.701Z" style="fill:#8d1b1b;"/><path d="M102.489,75.308c0.625,1.037 1.129,2.107 1.503,3.202c-0.374,1.096 -0.878,2.165 -1.503,3.202c-0.136,-1.094 -0.42,-2.163 -0.841,-3.202c0.421,-1.04 0.706,-2.109 0.841,-3.202Z" style="fill:#8d1b1b;"/><path d="M70.381,91.785l2.132,4.268l0,9.286l12.677,-3.026l7.408,-3.287l0,-9.234l-6.669,-2.868l-6.946,1.076l-8.601,3.785Z" style="fill:#8d1b1b;"/><rect x="25.487" y="85.417" width="2.463" height="5.151" style="fill:#8d1b1b;"/><path d="M72.513,96.132l0,11.551l-17.059,0l0,-11.551c4.735,0.747 10.376,0.783 17.059,0Z" style="fill:#bababa;"/><path d="M101.31,81.759l0,22.116l-8.712,0l0,-14.082c3.706,-1.956 6.398,-4.825 8.712,-8.034Z" style="fill:#bababa;"/><path d="M93.112,80.408l8.198,1.351l0,9.129l2.556,-5.478l0,-7.46l-0.417,-7.408l-2.974,-4.747l-1.826,5.895l-4.956,6.82l-0.582,1.897Z" style="fill:#8d1b1b;"/><path d="M57.438,91.872l-1.984,4.26l0,9.207l-20.085,-6.364c0,0 -2.848,-9.086 0.365,-10.121c3.678,-1.184 21.703,3.018 21.703,3.018Z" style="fill:#8d1b1b;"/><rect x="27.951" y="84.363" width="7.734" height="24.445" style="fill:#bababa;"/><path d="M27.951,84.363c2.448,1.914 4.919,3.787 7.734,5.012l3.612,-2.038l-11.346,-2.974Z" style="fill:#fff;"/><path d="M2.258,99.232l18.102,2.139" style="fill:none;stroke:#000;stroke-width:3.4px;"/></g><path d="M27.951,84.363c2.448,1.914 4.919,3.787 7.734,5.012l3.612,-2.038l-11.346,-2.974Z" style="fill:#fff;"/></g></svg>